<svg width="25" height="21" viewBox="0 0 25 21" fill="none" xmlns="http://www.w3.org/2000/svg">
<path fill-rule="evenodd" clip-rule="evenodd" d="M3.39972 0.211657C2.10931 0.676045 1.1174 1.75671 0.710541 3.14127C0.445082 4.04448 0.431579 4.78483 0.664762 5.64091C1.02793 6.97374 1.84977 7.96249 3.06816 8.53222L3.75607 8.85392L3.63707 9.276C3.57153 9.50825 3.5162 10.4406 3.51411 11.3479C3.51082 12.7262 3.55166 13.1514 3.76201 13.9323C4.50964 16.7073 6.32921 18.9827 8.76577 20.1896C10.0971 20.8492 10.7943 21 12.5118 21C14.3528 21 14.9937 20.8429 16.5739 20.0048C18.795 18.8267 20.3364 16.9185 21.1399 14.3527C21.4346 13.4115 21.4983 13.0081 21.5399 11.8192C21.5738 10.8515 21.5394 10.1508 21.4312 9.59922C21.2882 8.87041 21.2899 8.78746 21.4485 8.73231C23.6506 7.96603 24.9129 5.6607 24.3774 3.38366C23.8825 1.27948 22.0018 -0.165416 19.9934 0.0152256C18.5986 0.14072 17.2018 1.09165 16.6608 2.28402L16.496 2.64707L15.3823 2.22522C14.2804 1.80797 14.2495 1.80349 12.5118 1.80644C10.7857 1.8095 10.7361 1.81681 9.64437 2.22723L8.53346 2.64483L8.33783 2.2548C8.00748 1.59645 7.16775 0.780918 6.44613 0.41775C5.51845 -0.0492301 4.34507 -0.128533 3.39972 0.211657ZM5.82837 1.95962C6.33403 2.23924 6.91206 2.8613 7.06126 3.28656C7.15875 3.56418 7.12164 3.63123 6.64726 4.03458C5.96747 4.61256 5.30799 5.442 4.73447 6.44054L4.27218 7.24523L3.87377 7.09723C2.95421 6.75551 2.34336 6.01951 2.12994 4.99635C1.66852 2.78282 3.94183 0.916311 5.82837 1.95962ZM21.4089 1.90542C23.4123 2.90666 23.4095 5.95612 21.4044 6.94334C21.1629 7.06223 20.9121 7.16074 20.8472 7.16216C20.7823 7.16357 20.4954 6.76871 20.2096 6.28452C19.6963 5.41466 18.8953 4.44323 18.1834 3.82684L17.8169 3.50939L18.1015 2.98809C18.7707 1.76248 20.1919 1.29715 21.4089 1.90542ZM14.0809 3.57856C18.3704 4.51405 20.9916 9.32808 19.6586 13.8224C18.2755 18.4855 13.3372 20.7417 9.2183 18.5922C7.59162 17.7433 6.44876 16.494 5.68082 14.7254C3.98958 10.8301 5.51779 6.19615 9.133 4.25788C10.6571 3.44069 12.3701 3.20549 14.0809 3.57856ZM8.95185 7.82875C8.32707 8.68129 9.1565 9.83607 10.0409 9.34517C10.4356 9.126 10.6284 8.67811 10.5315 8.205C10.385 7.4888 9.37683 7.24877 8.95185 7.82875ZM14.7712 7.72447C14.642 7.83794 14.5079 8.12027 14.4734 8.35194C14.3358 9.27482 15.3743 9.82405 16.022 9.17101C16.6054 8.58266 16.2212 7.51825 15.4253 7.51825C15.189 7.51825 14.9038 7.60816 14.7712 7.72447ZM12.1062 11.058C11.4977 11.1689 10.9508 11.6273 10.6436 12.2842C10.2392 13.1489 10.3258 13.9968 10.8922 14.7193C12.223 16.4168 14.8924 15.1719 14.613 12.9839C14.4481 11.6921 13.332 10.8347 12.1062 11.058Z" fill="#929292"/>
</svg>
