<svg width="48" height="63" viewBox="0 0 48 63" fill="none" xmlns="http://www.w3.org/2000/svg">
<path fill-rule="evenodd" clip-rule="evenodd" d="M40.1003 1.56649C37.1412 4.61748 33.7201 10.2304 31.9087 15.0063C30.9077 17.6447 29.3131 22.8762 29.3081 23.5361C29.3062 23.8219 28.2053 24.7117 26.728 25.6218C25.3111 26.4947 22.3947 28.5388 20.2475 30.1637C18.1004 31.789 16.3046 33.0835 16.2571 33.0408C16.2093 32.998 16.5288 30.5891 16.9667 27.688C18.4677 17.7459 18.4421 18.0257 17.9555 16.892C17.4889 15.8051 16.3486 14.4494 15.9011 14.4494C15.4954 14.4494 15.0525 15.1259 14.6746 16.3233C14.2299 17.7331 12.5737 28.5157 12.0628 33.3271L11.6677 37.0477L9.16481 38.91C6.34963 41.0047 3.02506 42.7171 1.16211 43.032C-0.230491 43.2671 -0.266406 43.6197 1.00596 44.5685C1.66494 45.0598 2.33141 45.211 3.82364 45.2069C5.47515 45.2025 6.16224 45.0086 8.25036 43.9576C9.60986 43.2734 10.8276 42.6669 10.9562 42.6097C11.0849 42.5522 11.1905 44.7434 11.1905 47.4787C11.1905 53.0688 11.6924 55.7793 13.3242 58.9989C14.2174 60.7613 15.7037 62.509 16.031 62.1817C16.1178 62.0946 15.8861 61.1923 15.5157 60.1764C14.9648 58.6645 14.8167 57.4246 14.6999 53.3408C14.5466 47.9709 15.1097 39.7314 15.6809 38.9894C16.1078 38.4347 28.1478 27.8651 28.2396 27.9644C28.2752 28.0031 28.185 28.7842 28.0388 29.6999C26.9776 36.3416 26.8748 52.139 27.8724 55.2852C28.4817 57.2078 29.5195 58.1023 30.5192 57.567C31.5892 56.9945 31.8247 55.3249 31.4455 51.0025C30.9371 45.2078 31.3556 32.7503 32.2825 26.0768C32.4605 24.7969 32.552 24.7014 34.5558 23.7004C38.2933 21.8334 42.9599 20.6957 46.8791 20.6957C47.9103 20.6957 48.0902 20.6176 47.7779 20.3053C47.5075 20.0348 46.2179 19.9171 43.5773 19.9224C39.7368 19.9302 36.2895 20.6113 33.9112 21.8322C32.8116 22.3968 32.8025 22.1651 33.8063 19.0901C34.95 15.5868 37.0412 10.8669 38.8377 7.73467C39.7243 6.18872 40.7034 4.11122 41.0132 3.11806C41.323 2.12491 41.6966 1.23825 41.843 1.14768C42.1994 0.927502 42.1844 0.0830078 41.8243 0.0830078C41.6672 0.0830078 40.8914 0.75042 40.1003 1.56649Z" fill="#CF102D"/>
</svg>
