<svg width="61" height="32" viewBox="0 0 61 32" fill="none" xmlns="http://www.w3.org/2000/svg">
<g clip-path="url(#clip0_604_1894)">
<path fill-rule="evenodd" clip-rule="evenodd" d="M21.1367 30.1891L20.7267 27.7091C20.7267 27.7091 20.4567 26.5191 23.5267 26.3491C26.5867 26.1691 29.2568 26.5991 30.2868 26.7491C31.3268 26.9091 35.1668 27.5091 36.5868 27.6791C38.0769 27.8591 42.2169 28.7091 44.4769 27.0191C44.4769 27.0191 44.6969 29.8391 41.4569 30.3291C38.2169 30.8091 33.2268 29.9991 32.5168 29.8891C31.6468 29.7491 27.9768 29.1591 25.5167 29.0991C23.7767 29.0591 21.0667 29.2591 21.1367 30.1891Z" fill="white"/>
<path fill-rule="evenodd" clip-rule="evenodd" d="M23.3767 28.339C23.4067 28.339 23.4067 28.329 23.4067 28.289C23.3767 27.899 23.3467 27.579 23.3167 27.199C23.3167 27.159 23.3067 27.149 23.2767 27.149C23.2767 27.139 23.2767 27.129 23.2767 27.129C23.5467 27.099 23.7967 27.069 24.0767 27.049C24.1167 27.049 24.1167 27.029 24.1167 27.009C24.1167 27.009 24.1267 27.009 24.1367 27.009C24.1467 27.109 24.1567 27.199 24.1667 27.299C24.1567 27.299 24.1567 27.299 24.1467 27.299C24.1467 27.269 24.1267 27.259 24.0967 27.259C23.8967 27.279 23.7067 27.289 23.5067 27.309C23.5167 27.409 23.5267 27.509 23.5367 27.619C23.6767 27.599 23.7867 27.599 23.9267 27.589C23.9567 27.589 23.9667 27.579 23.9667 27.539C23.9767 27.539 23.9767 27.539 23.9867 27.539C23.9967 27.639 24.0067 27.729 24.0067 27.829C23.9967 27.829 23.9967 27.829 23.9867 27.829C23.9867 27.799 23.9767 27.789 23.9467 27.789C23.8067 27.799 23.6967 27.809 23.5567 27.819C23.5667 27.929 23.5767 28.039 23.5867 28.149C23.8067 28.129 23.9867 28.119 24.1967 28.109C24.2267 28.109 24.2367 28.099 24.2367 28.069C24.2367 28.069 24.2467 28.069 24.2567 28.069C24.2667 28.169 24.2667 28.249 24.2767 28.349C24.2767 28.349 24.2667 28.349 24.2567 28.349C24.2567 28.319 24.2367 28.309 24.2067 28.309C23.9167 28.329 23.6867 28.3391 23.3967 28.3691C23.3767 28.3491 23.3767 28.349 23.3767 28.339Z" fill="#CF102D"/>
<path fill-rule="evenodd" clip-rule="evenodd" d="M25.2467 27.4191C25.2367 27.4191 25.2267 27.4091 25.2267 27.3991V27.3691C25.2167 27.3491 25.1067 27.2291 24.8967 27.2091C24.6967 27.2191 24.6267 27.2891 24.6267 27.4091C24.7067 27.7191 25.2967 27.2491 25.4067 27.9391C25.4167 28.1891 25.2967 28.3291 24.9467 28.3391C24.6167 28.3291 24.5467 28.2091 24.5167 28.1991C24.5067 28.1991 24.5067 28.2091 24.4967 28.2091C24.4967 28.2091 24.4867 28.2091 24.4767 28.2091C24.5067 28.0991 24.5267 28.0191 24.5567 27.9091C24.5667 27.9091 24.5667 27.9191 24.5767 27.9291C24.5767 27.9391 24.5767 27.9491 24.5767 27.9591C24.5967 28.0691 24.7467 28.1291 24.9067 28.1391C25.1467 28.1291 25.1967 28.0591 25.2067 27.9591C25.1267 27.5991 24.5467 28.0791 24.4467 27.4391C24.4367 27.1191 24.6267 27.0091 24.8767 26.9991C25.1067 27.0091 25.2567 27.1291 25.2767 27.1391C25.2867 27.1391 25.2967 27.1291 25.2967 27.1291C25.3067 27.1291 25.3067 27.1391 25.3167 27.1391C25.2967 27.2491 25.2767 27.3191 25.2467 27.4191Z" fill="#CF102D"/>
<path fill-rule="evenodd" clip-rule="evenodd" d="M26.1767 28.2591C26.1767 28.2991 26.1967 28.3091 26.2167 28.3091C26.2167 28.3191 26.2167 28.3291 26.2167 28.3291C26.1267 28.3291 26.0567 28.3291 25.9667 28.3191C25.9667 28.3091 25.9667 28.2991 25.9667 28.2991C25.9967 28.2991 26.0067 28.2891 25.9967 28.2491C25.9667 27.9091 25.9467 27.6091 25.9067 27.2491C25.8067 27.2491 25.7067 27.2391 25.6067 27.2391C25.5667 27.2391 25.5667 27.2491 25.5667 27.2791C25.5567 27.2791 25.5567 27.2791 25.5467 27.2791C25.5367 27.1791 25.5267 27.0791 25.5167 26.9791C25.5167 26.9791 25.5267 26.9791 25.5367 26.9791C25.5367 27.0091 25.5467 27.0191 25.5867 27.0291C25.8567 27.0291 26.0967 27.0391 26.3667 27.0491C26.4067 27.0491 26.4067 27.0391 26.4067 27.0091C26.4167 27.0091 26.4167 27.0091 26.4267 27.0091C26.4367 27.1091 26.4467 27.2191 26.4567 27.3191C26.4567 27.3191 26.4467 27.3191 26.4367 27.3191C26.4367 27.2891 26.4267 27.2691 26.3867 27.2691C26.2867 27.2591 26.1867 27.2591 26.0867 27.2591C26.1167 27.6291 26.1467 27.9191 26.1767 28.2591Z" fill="#CF102D"/>
<path fill-rule="evenodd" clip-rule="evenodd" d="M27.8468 28.399C27.8668 28.399 27.8768 28.389 27.8768 28.349C27.8468 27.959 27.8268 27.639 27.7868 27.219C27.7868 27.179 27.7768 27.159 27.7468 27.159C27.7468 27.149 27.7468 27.139 27.7468 27.129C27.8268 27.139 27.9068 27.149 27.9968 27.149C27.9968 27.159 27.9968 27.169 27.9968 27.179C27.9568 27.179 27.9568 27.189 27.9668 27.229C28.0068 27.599 28.0168 27.889 28.0468 28.229C28.2468 28.249 28.4268 28.269 28.6268 28.289C28.6568 28.289 28.6668 28.279 28.6668 28.249C28.6668 28.249 28.6768 28.249 28.6868 28.249C28.6968 28.339 28.7068 28.429 28.7068 28.529C28.7068 28.529 28.6968 28.529 28.6868 28.529C28.6868 28.509 28.6768 28.489 28.6368 28.489C28.3668 28.459 28.1168 28.429 27.8468 28.409C27.8468 28.409 27.8468 28.409 27.8468 28.399Z" fill="#CF102D"/>
<path fill-rule="evenodd" clip-rule="evenodd" d="M29.2968 27.5191C29.4968 27.5591 29.6468 27.7191 29.6868 28.0291C29.7068 28.3391 29.5768 28.4391 29.3768 28.4191C29.1768 28.3791 29.0368 28.2491 28.9868 27.9291C28.9668 27.6191 29.0968 27.4991 29.2968 27.5191ZM29.2768 27.2991C28.9768 27.2691 28.7968 27.4491 28.8168 27.9091C28.8768 28.3591 29.0968 28.5591 29.4068 28.6191C29.7168 28.6391 29.8968 28.4991 29.8768 28.0491C29.8068 27.5991 29.5868 27.3591 29.2768 27.2991Z" fill="#CF102D"/>
<path fill-rule="evenodd" clip-rule="evenodd" d="M31.1468 28.7791C31.1468 28.8191 31.1568 28.8291 31.1868 28.8391C31.1868 28.8491 31.1868 28.8591 31.1868 28.8591C31.1068 28.8491 31.0368 28.8391 30.9568 28.8191C30.9568 28.8091 30.9568 28.7991 30.9568 28.7991C30.9668 28.7991 30.9768 28.7891 30.9768 28.7891C30.9668 28.7691 30.9568 28.7591 30.9468 28.7391C30.7168 28.4291 30.5268 28.1491 30.2968 27.8191C30.3268 28.1291 30.3468 28.3691 30.3668 28.6591C30.3668 28.6991 30.3768 28.7091 30.4068 28.7191C30.4068 28.7291 30.4068 28.7291 30.4068 28.7391C30.3268 28.7291 30.2568 28.7191 30.1768 28.7091C30.1768 28.6991 30.1768 28.6891 30.1768 28.6891C30.2068 28.6891 30.2068 28.6891 30.2068 28.6491C30.1768 28.2691 30.1468 27.9391 30.1068 27.5291C30.1068 27.4891 30.0968 27.4791 30.0668 27.4691C30.0668 27.4591 30.0668 27.4491 30.0668 27.4391C30.1568 27.4591 30.2468 27.4691 30.3368 27.4791C30.3368 27.4891 30.3368 27.4991 30.3368 27.5091C30.3068 27.4991 30.3068 27.5091 30.3068 27.5291C30.3068 27.5391 30.3168 27.5491 30.3268 27.5591C30.5568 27.8891 30.7368 28.1491 30.9568 28.4591C30.9368 28.1791 30.9068 27.9491 30.8868 27.6591C30.8868 27.6191 30.8868 27.6091 30.8468 27.5991C30.8468 27.5891 30.8468 27.5791 30.8468 27.5791C30.9268 27.5891 30.9968 27.5991 31.0768 27.6191C31.0768 27.6291 31.0768 27.6391 31.0768 27.6391C31.0468 27.6391 31.0468 27.6491 31.0468 27.6891C31.0968 28.0891 31.1168 28.3991 31.1468 28.7791Z" fill="#CF102D"/>
<path fill-rule="evenodd" clip-rule="evenodd" d="M31.5968 27.8891C31.7168 27.9091 31.8168 27.9291 31.9268 27.9391C32.0968 27.9791 32.2268 28.0591 32.2568 28.4191C32.2768 28.7491 32.1968 28.8091 32.0368 28.7891C31.9068 28.7691 31.7868 28.7491 31.6668 28.7291C31.6468 28.4491 31.6268 28.1991 31.5968 27.8891ZM31.4968 28.8291C31.4968 28.8691 31.4968 28.8791 31.4668 28.8691C31.4668 28.8791 31.4668 28.8891 31.4668 28.8891C31.6668 28.9191 31.8568 28.9491 32.0568 28.9791C32.3368 29.0091 32.4568 28.8791 32.4368 28.4391C32.3868 28.0391 32.2568 27.7991 31.9168 27.7291C31.7168 27.6991 31.5468 27.6691 31.3568 27.6291C31.3568 27.6391 31.3568 27.6491 31.3568 27.6491C31.3868 27.6591 31.3968 27.6691 31.3968 27.7091C31.4368 28.1291 31.4668 28.4591 31.4968 28.8291Z" fill="#CF102D"/>
<path fill-rule="evenodd" clip-rule="evenodd" d="M33.1968 28.1291C33.3968 28.1691 33.5568 28.3291 33.5868 28.6191C33.6068 28.9191 33.4768 29.0191 33.2768 28.9991C33.0668 28.9591 32.9268 28.8191 32.8868 28.5091C32.8668 28.2091 32.9868 28.0991 33.1968 28.1291ZM33.1768 27.9191C32.8568 27.8891 32.6868 28.0391 32.7068 28.4791C32.7668 28.9191 32.9868 29.1191 33.2868 29.1891C33.6068 29.2191 33.7868 29.0791 33.7668 28.6391C33.7168 28.2091 33.4768 27.9891 33.1768 27.9191Z" fill="#CF102D"/>
<path fill-rule="evenodd" clip-rule="evenodd" d="M35.0268 29.3591C35.0268 29.3991 35.0368 29.4091 35.0668 29.4091C35.0668 29.4191 35.0668 29.4291 35.0668 29.4291C34.9868 29.4191 34.9068 29.4091 34.8368 29.3991C34.8368 29.3891 34.8368 29.3791 34.8368 29.3691C34.8468 29.3691 34.8568 29.3691 34.8568 29.3591C34.8468 29.3391 34.8368 29.3291 34.8268 29.3091C34.6068 28.9991 34.4068 28.7391 34.1868 28.4091C34.2068 28.7091 34.2368 28.9491 34.2568 29.2291C34.2568 29.2691 34.2668 29.2791 34.2968 29.2891C34.2968 29.2991 34.2968 29.3091 34.2968 29.3091C34.2168 29.2891 34.1568 29.2891 34.0668 29.2791C34.0668 29.2691 34.0668 29.2591 34.0668 29.2591C34.0968 29.2591 34.0968 29.2591 34.0868 29.2191C34.0568 28.8491 34.0268 28.5191 33.9868 28.1291C33.9868 28.0891 33.9768 28.0791 33.9468 28.0691C33.9468 28.0591 33.9468 28.0491 33.9468 28.0491C34.0368 28.0591 34.1168 28.0791 34.2168 28.0891C34.2168 28.0991 34.2168 28.1091 34.2168 28.1091C34.2068 28.1191 34.1968 28.1191 34.1868 28.1291C34.1968 28.1391 34.1968 28.1491 34.2068 28.1591C34.4168 28.4691 34.6168 28.7291 34.8268 29.0291C34.8068 28.7591 34.7868 28.5291 34.7568 28.2491C34.7568 28.2091 34.7568 28.1991 34.7168 28.1891C34.7168 28.1791 34.7168 28.1691 34.7168 28.1591C34.7968 28.1791 34.8668 28.1791 34.9468 28.1891C34.9468 28.1991 34.9468 28.2091 34.9468 28.2091C34.9268 28.2091 34.9168 28.2191 34.9168 28.2591C34.9568 28.6591 34.9868 28.9791 35.0268 29.3591Z" fill="#CF102D"/>
<path fill-rule="evenodd" clip-rule="evenodd" d="M36.5068 28.469C36.5468 28.419 36.5268 28.399 36.5268 28.399C36.6068 28.409 36.6868 28.419 36.7768 28.429C36.7768 28.439 36.7768 28.449 36.7768 28.449C36.7468 28.449 36.7368 28.469 36.7468 28.509C36.7768 28.8891 36.7968 29.2091 36.8468 29.5791C36.8468 29.6191 36.8668 29.6391 36.8868 29.6391C36.8868 29.6491 36.8868 29.6591 36.8868 29.6591C36.7968 29.6491 36.7168 29.6391 36.6268 29.6291C36.6268 29.6191 36.6268 29.6091 36.6268 29.6091C36.6568 29.6091 36.6568 29.5991 36.6568 29.5491C36.6268 29.2491 36.6068 29.0091 36.5768 28.7091C36.4768 28.7091 36.4768 28.7191 36.4668 28.7691C36.4668 28.7691 36.4568 28.7691 36.4468 28.7691C36.4368 28.6791 36.4268 28.589 36.4268 28.499C36.4268 28.499 36.4668 28.5191 36.5068 28.469Z" fill="#CF102D"/>
<path fill-rule="evenodd" clip-rule="evenodd" d="M37.7268 28.7191C37.5268 28.6991 37.3368 28.6991 37.1368 28.6791C37.1068 28.6791 37.0968 28.6791 37.0968 28.7091C37.0968 28.7091 37.0868 28.7091 37.0768 28.7091C37.0668 28.6091 37.0568 28.5191 37.0468 28.4191C37.0568 28.4191 37.0568 28.4191 37.0668 28.4191C37.0668 28.4491 37.0768 28.4591 37.1168 28.4591C37.3768 28.4791 37.5868 28.4991 37.8568 28.5091C37.8868 28.5091 37.8968 28.5091 37.8968 28.4691C37.9068 28.4691 37.9068 28.4691 37.9168 28.4691C37.9268 28.5491 37.9168 28.6091 37.9368 28.6891C37.8168 29.0191 37.7168 29.3091 37.5968 29.6291C37.5968 29.6491 37.5868 29.6591 37.5868 29.6791C37.5868 29.6991 37.5968 29.6991 37.6168 29.6991C37.6168 29.7091 37.6168 29.7191 37.6168 29.7191C37.5168 29.7191 37.4368 29.7091 37.3368 29.6991C37.3368 29.6891 37.3368 29.6791 37.3368 29.6791C37.3568 29.6791 37.3668 29.6491 37.3868 29.6291C37.5068 29.3191 37.6068 29.0491 37.7268 28.7191Z" fill="#CF102D"/>
<path fill-rule="evenodd" clip-rule="evenodd" d="M38.9168 29.4491C38.9268 29.6091 38.8568 29.6691 38.6968 29.6691C38.5368 29.6591 38.4568 29.5991 38.4368 29.4391C38.4368 29.3291 38.4968 29.2291 38.6568 29.2191C38.8068 29.2291 38.8968 29.2891 38.9168 29.4491ZM38.9768 28.6891C38.9668 28.6891 38.9668 28.6891 38.9568 28.6791C38.9468 28.6791 38.9468 28.6891 38.9368 28.6991C38.9268 28.6991 38.8968 28.6791 38.8368 28.6391C38.7768 28.6091 38.7168 28.5891 38.6268 28.5791C38.3268 28.5891 38.1868 28.8091 38.2068 29.2191C38.2568 29.6391 38.4068 29.8391 38.7168 29.8591C38.9268 29.8591 39.1068 29.7591 39.0868 29.4291C39.0568 29.1391 38.8768 29.0291 38.6668 29.0091C38.5668 29.0091 38.4568 29.0391 38.3668 29.1491C38.3668 28.8891 38.4568 28.7791 38.6368 28.7791C38.7968 28.7891 38.8668 28.8791 38.8768 28.9291C38.8768 28.9391 38.8768 28.9391 38.8768 28.9491C38.8868 28.9491 38.8868 28.9591 38.8968 28.9591C38.9368 28.8691 38.9468 28.7891 38.9768 28.6891Z" fill="#CF102D"/>
<path fill-rule="evenodd" clip-rule="evenodd" d="M39.6769 28.8391C39.8569 28.8491 39.9669 28.9891 39.9969 29.2691C40.0169 29.5491 39.9269 29.6991 39.7569 29.7191C39.5769 29.7091 39.4669 29.5591 39.4369 29.2891C39.4169 29.0091 39.4869 28.8591 39.6769 28.8391ZM39.6569 28.6391C39.3669 28.6691 39.2269 28.8991 39.2569 29.2991C39.3069 29.6891 39.4869 29.9191 39.7669 29.9391C40.0569 29.9091 40.1969 29.6691 40.1669 29.2691C40.1269 28.8691 39.9569 28.6491 39.6569 28.6391Z" fill="#CF102D"/>
<path fill-rule="evenodd" clip-rule="evenodd" d="M26.6167 28.2591C26.6167 28.1791 26.6667 28.1191 26.7367 28.1191C26.7967 28.1191 26.8467 28.1791 26.8567 28.2591C26.8567 28.3391 26.8067 28.3891 26.7467 28.3991C26.6667 28.3891 26.6267 28.3391 26.6167 28.2591Z" fill="#CF102D"/>
<path fill-rule="evenodd" clip-rule="evenodd" d="M27.1868 29.7191L27.2268 30.5691C27.2268 30.5691 28.3868 30.3991 29.0568 30.4991C29.7368 30.5991 30.2168 30.9391 29.1368 31.1391C28.3868 31.2791 27.2668 31.3891 25.6367 31.3791C23.8467 31.3591 22.2167 31.1191 21.6367 30.8491C20.8067 30.4591 21.9967 29.7791 23.3867 29.6491C23.7767 29.6091 24.0967 29.5391 25.5867 29.5491C26.0167 29.5491 26.5468 29.5891 27.1868 29.6291V29.7191Z" fill="#AB9257"/>
<path fill-rule="evenodd" clip-rule="evenodd" d="M28.4868 29.7291C29.4268 29.8191 29.6668 29.8591 29.6668 29.8591L29.7868 30.8291C29.7868 30.8291 29.7768 30.5591 28.7368 30.4891C28.4068 30.4591 27.9768 30.4791 27.2168 30.5791L27.1768 29.6191C27.9668 29.6691 27.9368 29.6791 28.4868 29.7291Z" fill="white"/>
<path fill-rule="evenodd" clip-rule="evenodd" d="M32.9468 6.83888C32.6768 7.18888 32.3668 7.70888 32.0368 8.38889C30.6768 8.68889 29.9368 9.3789 29.9068 9.4089L29.7468 9.5589L29.9668 9.5489C30.4068 9.5289 30.8968 9.5989 31.4268 9.7589C30.9168 10.9689 30.5368 12.0589 30.5368 12.0689L30.4268 12.3989C30.4268 12.3989 32.5468 10.3189 32.6268 10.2389C33.3468 10.5989 33.8568 10.9689 33.8668 10.9689L34.0668 11.1189C34.0668 11.1189 33.5468 9.5389 33.5168 9.4489C34.2268 8.58889 34.6268 8.23889 34.6368 8.23889L34.8168 8.08889L34.3768 8.09889C34.1168 8.10889 33.7168 8.11889 33.1668 8.18889C33.1568 8.02889 33.1068 6.65887 33.1068 6.65887L32.9468 6.83888Z" fill="#AB9257"/>
<path fill-rule="evenodd" clip-rule="evenodd" d="M27.1667 8.10888C27.0067 8.34888 26.8267 8.69888 26.6367 9.16889C25.7567 9.43889 25.2967 9.91889 25.2767 9.93889L25.1267 10.0989L25.3467 10.0789C25.6267 10.0489 25.9367 10.0789 26.2767 10.1489C26.2267 10.3189 25.6967 12.0489 25.6967 12.0489L25.9467 11.7589C25.9467 11.7589 27.0567 10.4989 27.1367 10.4089C27.6167 10.6089 27.9567 10.8289 27.9567 10.8289L28.1767 10.9689C28.1767 10.9689 27.7467 9.89889 27.7167 9.81889C28.1367 9.22889 28.3767 8.97888 28.3867 8.97888L28.5567 8.81888L28.1867 8.85888C28.1867 8.85888 27.5667 8.94888 27.4267 8.96888C27.4167 8.82888 27.3167 7.90887 27.3167 7.90887L27.1667 8.10888Z" fill="#AB9257"/>
<path fill-rule="evenodd" clip-rule="evenodd" d="M20.1266 10.3889C20.0266 10.5489 19.9066 10.7889 19.7966 11.0889C19.2366 11.2689 18.9366 11.5889 18.9266 11.5989L18.7866 11.7589L18.9966 11.7289C19.1566 11.7089 19.3566 11.7289 19.5566 11.7689C19.5166 11.9289 19.1566 13.1289 19.1566 13.1289L19.4066 12.8389C19.4066 12.8389 20.1266 11.9889 20.1466 11.9689C20.2366 12.0189 20.8466 12.3389 20.8466 12.3389L20.7666 12.1389C20.7666 12.1389 20.5566 11.6189 20.5366 11.5489C20.7966 11.1689 20.9466 11.0089 20.9566 11.0089L21.1166 10.8489L20.8066 10.8789C20.8066 10.8789 20.4666 10.9289 20.3366 10.9489C20.3166 10.8189 20.2566 10.1889 20.2566 10.1889L20.1266 10.3889Z" fill="#AB9257"/>
<path fill-rule="evenodd" clip-rule="evenodd" d="M23.5667 10.0689C23.4267 10.2789 23.2767 10.5789 23.1167 10.9689C22.3767 11.1989 21.9867 11.6089 21.9667 11.6289L21.8167 11.7889L22.0367 11.7589C22.2667 11.7289 22.5267 11.7589 22.8067 11.8189C22.7567 11.9789 22.2967 13.4889 22.2967 13.4889L22.5467 13.1989C22.5467 13.1989 23.4667 12.1389 23.5467 12.0589C23.9467 12.2289 24.2267 12.4089 24.2367 12.4189L24.4567 12.5589C24.4567 12.5589 24.0767 11.6189 24.0467 11.5489C24.3967 11.0489 24.6067 10.8389 24.6067 10.8389L24.7667 10.6789L24.4167 10.7189C24.4167 10.7189 23.9267 10.7889 23.7867 10.8089C23.7767 10.6689 23.6867 9.87891 23.6867 9.87891L23.5667 10.0689Z" fill="#AB9257"/>
<path fill-rule="evenodd" clip-rule="evenodd" d="M29.9367 4.72882C29.7967 4.93882 29.6467 5.23883 29.4867 5.63883C28.7467 5.86883 28.3467 6.27884 28.3367 6.29884L28.1867 6.45884L28.4067 6.43884C28.6367 6.40884 28.8967 6.43884 29.1767 6.49884C29.1267 6.65884 28.6667 8.16885 28.6667 8.16885L28.9167 7.87885C28.9167 7.87885 29.8467 6.81884 29.9167 6.72884C30.3167 6.89884 30.6067 7.08884 30.6067 7.08884L30.8267 7.22885C30.8267 7.22885 30.4467 6.28884 30.4167 6.21884C30.7667 5.71883 30.9767 5.50883 30.9767 5.50883L31.1467 5.34883L30.7967 5.37883C30.7967 5.37883 30.2867 5.44883 30.1567 5.46883C30.1367 5.32883 30.0567 4.53882 30.0567 4.53882L29.9367 4.72882Z" fill="#AB9257"/>
<path fill-rule="evenodd" clip-rule="evenodd" d="M26.5767 17.749C26.5767 17.749 26.1767 17.909 25.9267 17.879C25.6767 17.849 25.3567 17.769 25.2467 17.239C25.1367 16.709 25.3367 16.739 25.7267 16.709C26.1167 16.669 26.8268 16.3489 27.2068 16.1589C27.5968 15.9789 28.0968 15.9489 28.3268 16.3889C28.5468 16.819 28.2268 17.279 28.0168 17.539C27.9068 17.679 27.9368 17.769 28.1768 17.599C28.4168 17.429 29.0568 16.929 29.7568 16.689C30.4568 16.4489 30.8968 16.7089 30.9568 17.279C31.0168 17.789 30.7268 18.629 30.5368 19.089C30.5168 19.139 30.4668 19.219 30.4968 19.219C30.5268 19.219 30.5568 19.169 30.6268 19.109C30.8668 18.879 31.3868 18.389 31.5668 18.249C31.6768 18.169 32.6768 17.399 33.0168 18.409C33.3568 19.419 33.7868 20.719 34.0768 21.309C34.3968 21.959 34.7668 22.359 34.8668 22.519C34.9668 22.679 35.2668 23.219 34.9268 23.479C34.5868 23.739 33.3468 23.299 32.8068 21.689C32.3168 20.249 32.2868 20.109 32.2368 19.969C32.1868 19.799 32.0568 19.499 31.3168 20.239C30.8668 20.679 30.3068 21.339 30.0068 21.749C29.7568 22.089 29.4268 22.589 29.2968 22.759C29.1568 22.939 28.7768 23.539 28.3668 22.659C27.9568 21.779 28.2568 21.299 28.4868 20.669C28.7268 20.029 28.9968 19.449 29.0568 19.209C29.1168 18.969 29.2468 18.449 28.4368 18.999C27.5968 19.559 26.6667 20.489 25.9867 21.279C25.4867 21.859 25.2667 22.099 25.0767 22.269C24.8867 22.439 24.4367 22.799 24.3367 21.779C24.2267 20.759 24.4767 20.699 24.8367 20.249C25.1767 19.789 26.6968 17.959 26.5767 17.749Z" fill="#E01D38"/>
<path fill-rule="evenodd" clip-rule="evenodd" d="M26.5767 17.749C26.5767 17.749 26.1767 17.909 25.9267 17.879C25.6767 17.849 25.3567 17.769 25.2467 17.239C25.1367 16.709 25.3367 16.739 25.7267 16.709C26.1167 16.669 26.8268 16.3489 27.2068 16.1589C27.5968 15.9789 28.0968 15.9489 28.3268 16.3889C28.5468 16.819 28.2268 17.279 28.0168 17.539C27.9068 17.679 27.9368 17.769 28.1768 17.599C28.4168 17.429 29.0568 16.929 29.7568 16.689C30.4568 16.4489 30.8968 16.7089 30.9568 17.279C31.0168 17.789 30.7268 18.629 30.5368 19.089C30.5168 19.139 30.4668 19.219 30.4968 19.219C30.5268 19.219 30.5568 19.169 30.6268 19.109C30.8668 18.879 31.3868 18.389 31.5668 18.249C31.6768 18.169 32.6768 17.399 33.0168 18.409C33.3568 19.419 33.7868 20.719 34.0768 21.309C34.3968 21.959 34.7668 22.359 34.8668 22.519C34.9668 22.679 35.2668 23.219 34.9268 23.479C34.5868 23.739 33.3468 23.299 32.8068 21.689C32.3168 20.249 32.2868 20.109 32.2368 19.969C32.1868 19.799 32.0568 19.499 31.3168 20.239C30.8668 20.679 30.3068 21.339 30.0068 21.749C29.7568 22.089 29.4268 22.589 29.2968 22.759C29.1568 22.939 28.7768 23.539 28.3668 22.659C27.9568 21.779 28.2568 21.299 28.4868 20.669C28.7268 20.029 28.9968 19.449 29.0568 19.209C29.1168 18.969 29.2468 18.449 28.4368 18.999C27.5968 19.559 26.6667 20.489 25.9867 21.279C25.4867 21.859 25.2667 22.099 25.0767 22.269C24.8867 22.439 24.4367 22.799 24.3367 21.779C24.2267 20.759 24.4767 20.699 24.8367 20.249C25.1767 19.789 26.6968 17.959 26.5767 17.749Z" fill="white"/>
<path fill-rule="evenodd" clip-rule="evenodd" d="M55.377 12.6889C55.377 12.6889 56.577 11.0289 58.677 11.0689C59.807 11.0889 60.137 11.8989 59.967 12.5189C59.867 12.8989 59.737 13.1089 59.517 13.2689C59.007 13.6589 57.757 13.7689 57.767 12.6989C57.767 12.6989 57.487 12.5489 56.697 13.0989C55.877 13.6789 55.697 14.2489 55.917 14.3689C56.137 14.4889 56.507 14.4789 57.667 14.2789C58.837 14.0789 59.497 14.5689 59.677 14.9189C59.857 15.2689 60.157 16.3689 58.777 17.6289C57.747 18.569 57.397 18.819 56.387 19.319C55.567 19.719 54.817 19.939 54.547 19.979C54.207 20.029 53.697 19.879 53.667 19.399C53.627 18.929 53.897 18.799 54.427 18.649C54.967 18.499 56.087 18.099 57.237 17.0889C58.337 16.1389 58.677 15.3589 57.607 15.5189C56.577 15.6789 55.827 15.9389 55.107 15.4589C54.207 14.8589 54.847 13.3689 55.377 12.6889Z" fill="white"/>
<path fill-rule="evenodd" clip-rule="evenodd" d="M21.4667 9.10889C19.3067 8.72889 17.1666 9.16889 15.0966 10.0789C15.5866 7.95888 17.0066 4.71885 17.7466 3.55884C18.4966 2.37882 18.6166 2.00882 18.6766 1.70882C18.7466 1.40881 19.0266 0.658806 19.2067 0.388804C19.3867 0.118801 19.2567 -0.331203 18.5866 0.388804C17.9166 1.10881 17.5966 1.30881 16.1066 3.62884C14.8666 5.57885 13.8966 8.46888 13.3066 10.9789C11.2666 12.1289 9.30656 13.6389 7.49654 15.1089C7.72654 13.3389 7.98654 11.5589 8.18655 10.3689C8.64655 7.66887 8.46655 7.74888 7.79654 6.89887C7.18654 6.12886 6.88653 6.85887 6.67653 7.67887C6.47653 8.45888 5.74652 13.4489 5.58652 14.7089C5.52652 15.1889 5.44652 15.929 5.36652 16.829C2.52649 19.059 1.69648 19.229 1.10648 19.429C0.706475 19.559 0.426472 19.549 0.136469 19.579C0.0364685 19.589 -0.0435314 19.699 0.0264693 19.799C0.756476 20.839 2.07649 20.669 2.73649 20.489C3.3865 20.309 3.4565 20.279 4.85651 19.479C4.96652 19.419 5.08652 19.339 5.20652 19.259C5.15652 20.349 5.12652 21.529 5.13652 22.709C5.17652 26.1791 6.99654 28.3791 7.37654 28.3691C7.70654 28.3691 7.24654 27.5591 7.03654 26.8791C6.61653 25.509 6.70653 22.729 6.88653 20.449C6.93653 19.809 7.03654 18.839 7.16654 17.729C8.60655 16.509 10.4666 14.8289 12.6566 12.9489C12.7566 12.8689 12.8466 12.7889 12.9366 12.7089C12.8566 13.1489 12.7966 13.5689 12.7466 13.9489C12.3966 16.699 12.3166 21.269 12.4466 23.239C12.5766 25.209 12.9866 26.3291 13.7666 26.2591C14.8266 26.1691 14.5066 24.219 14.4266 23.159C14.1266 19.139 14.4766 14.0189 14.8766 11.3289C17.4466 9.74889 19.3767 9.63889 19.9867 9.55889C20.7667 9.44889 21.8267 9.61889 21.9467 9.43889C22.0567 9.25889 21.4667 9.10889 21.4667 9.10889Z" fill="white"/>
<path fill-rule="evenodd" clip-rule="evenodd" d="M39.6468 20.369C39.9168 20.489 40.1968 20.499 40.1968 20.499C40.1968 20.499 40.1668 19.059 40.9368 17.709C41.6969 16.369 42.9469 16.129 43.7669 16.419C44.6069 16.719 44.9669 18.049 44.7369 19.139C44.4869 20.369 43.8469 21.759 41.9469 21.539C41.9469 21.539 41.9869 22.849 42.9569 22.709C43.9269 22.579 44.5769 21.799 45.0969 20.969C45.4269 20.439 45.5469 20.099 45.7469 20.179C45.8869 20.239 46.0269 21.039 45.6269 21.939C45.2769 22.739 44.2069 23.699 42.7169 23.799C41.1968 23.899 40.4968 22.679 40.3068 21.289C40.3068 21.289 38.7868 20.839 39.1068 20.279C39.2068 20.089 39.4668 20.289 39.6468 20.369ZM42.9969 17.659C42.5369 17.499 42.2169 18.239 42.0569 18.919C41.8969 19.599 41.8069 20.539 42.1369 20.609C42.4069 20.659 42.9069 19.879 43.1369 19.049C43.2469 18.619 43.3769 17.799 42.9969 17.659Z" fill="white"/>
<path fill-rule="evenodd" clip-rule="evenodd" d="M46.877 15.629C46.877 15.369 46.917 14.3989 47.877 14.7489C48.837 15.099 48.657 16.589 48.637 16.949C48.627 17.309 48.597 17.869 48.577 18.149C48.557 18.359 48.517 19.149 49.267 18.229C50.067 17.259 50.777 16.139 51.057 15.129C51.337 14.1289 51.427 13.8989 52.187 13.7489C52.957 13.5989 53.027 13.9189 52.867 14.7489C52.707 15.569 52.007 19.279 51.887 19.879C51.767 20.479 50.967 24.629 50.707 25.6791C50.447 26.7291 50.137 28.0491 49.747 29.1091C49.437 29.9691 48.477 32.0491 47.857 31.9991C47.247 31.9491 48.167 30.9391 48.637 29.0991C49.157 27.0791 49.287 26.0091 49.487 24.959C49.687 23.909 49.737 23.399 49.877 22.579C50.167 20.899 50.397 19.149 50.477 18.619C50.477 18.619 49.467 19.979 48.637 20.659C47.987 21.189 47.387 21.009 47.177 20.059C46.957 19.049 46.877 17.069 46.877 15.629Z" fill="white"/>
<path fill-rule="evenodd" clip-rule="evenodd" d="M37.4968 7.02888C37.5868 6.38887 37.6268 5.38886 37.9068 5.05886C38.1969 4.70885 39.3169 4.86885 39.4569 6.22887C39.5969 7.58888 39.2269 9.2789 39.0669 10.1689C38.9069 11.0589 38.2969 13.8389 38.1769 14.4989C38.0969 14.929 37.6368 17.619 37.4768 19.469C37.3668 20.749 37.2968 22.099 37.9068 23.529C38.2369 24.299 38.1369 24.609 37.8669 24.649C37.4368 24.719 36.8268 23.449 36.6068 22.669C36.1768 21.129 36.0868 20.199 36.0368 19.059C35.9668 17.469 36.1168 16.369 36.2768 14.939C36.4168 13.5289 37.1168 9.8989 37.4968 7.02888Z" fill="white"/>
<path fill-rule="evenodd" clip-rule="evenodd" d="M16.5066 17.319C16.9766 16.389 17.7866 15.459 19.3567 14.659C20.8767 13.8789 21.6067 13.8789 21.8867 14.3089C22.2567 14.899 21.9267 15.389 20.5767 15.849C18.9767 16.399 17.3666 17.899 17.7766 18.709C18.1466 19.439 19.5567 18.289 20.4467 17.269C21.3367 16.259 22.0767 15.829 22.6367 16.319C23.0667 16.689 22.8367 17.239 22.4567 18.409C22.1467 19.339 22.5167 19.569 22.7767 19.519C23.0367 19.459 23.1967 19.379 23.1567 19.849C23.1167 20.319 22.4767 21.119 21.5967 20.729C20.7167 20.339 21.2467 18.759 21.2767 18.549C21.3067 18.339 21.3967 17.889 20.8867 18.569C20.3767 19.249 19.0767 20.669 17.7366 20.569C16.6066 20.469 15.4766 19.339 16.5066 17.319Z" fill="white"/>
<path fill-rule="evenodd" clip-rule="evenodd" d="M54.337 21.609C53.967 21.609 53.687 21.319 53.687 20.959C53.687 20.599 53.977 20.309 54.337 20.309C54.697 20.309 54.987 20.599 54.987 20.959C54.987 21.319 54.697 21.609 54.337 21.609ZM54.337 20.459C54.057 20.459 53.847 20.679 53.847 20.959C53.847 21.239 54.057 21.459 54.337 21.459C54.617 21.459 54.827 21.239 54.827 20.959C54.827 20.679 54.617 20.459 54.337 20.459ZM54.577 21.279H54.487C54.467 21.279 54.457 21.269 54.447 21.259L54.317 21.049H54.267V21.259C54.267 21.269 54.267 21.279 54.247 21.279H54.167C54.147 21.279 54.147 21.269 54.147 21.259V20.679C54.147 20.659 54.157 20.649 54.167 20.649H54.247C54.377 20.649 54.427 20.649 54.497 20.699C54.537 20.739 54.557 20.779 54.557 20.849C54.557 20.929 54.517 20.999 54.447 21.029L54.587 21.249C54.587 21.259 54.597 21.259 54.597 21.269C54.597 21.269 54.587 21.279 54.577 21.279ZM54.307 20.739H54.267V20.949H54.307C54.317 20.949 54.327 20.949 54.337 20.949C54.397 20.949 54.437 20.909 54.437 20.849C54.427 20.769 54.387 20.739 54.307 20.739Z" fill="#E01D38"/>
</g>
<defs>
<clipPath id="clip0_604_1894">
<rect width="60.009" height="32" fill="white"/>
</clipPath>
</defs>
</svg>
